<?xml version="1.0" standalone="no"?>
<svg xmlns="http://www.w3.org/2000/svg" version="1.1" width="455" height="455">
	<!-- Created with https://api.qrserver.com (QR Code API, see goQR.me/api for information) -->
	<title>QR Code</title>
	<desc>http://site.medgrupo.com.br/link/#/medbase2025Congresso-BASE-CCMED-BASE-CCMED</desc>
	<rect style="fill:rgb(255, 255, 255);fill-opacity:1" x="0" y="0" width="455" height="455" />
	<g id="elements">
		<path style="fill:rgb(0, 0, 0)" d="M 13,13 l 13,0 0,13 -13,0 z M 26,13 l 13,0 0,13 -13,0 z M 39,13 l 13,0 0,13 -13,0 z M 52,13 l 13,0 0,13 -13,0 z M 65,13 l 13,0 0,13 -13,0 z M 78,13 l 13,0 0,13 -13,0 z M 91,13 l 13,0 0,13 -13,0 z M 130,13 l 13,0 0,13 -13,0 z M 208,13 l 13,0 0,13 -13,0 z M 273,13 l 13,0 0,13 -13,0 z M 312,13 l 13,0 0,13 -13,0 z M 325,13 l 13,0 0,13 -13,0 z M 351,13 l 13,0 0,13 -13,0 z M 364,13 l 13,0 0,13 -13,0 z M 377,13 l 13,0 0,13 -13,0 z M 390,13 l 13,0 0,13 -13,0 z M 403,13 l 13,0 0,13 -13,0 z M 416,13 l 13,0 0,13 -13,0 z M 429,13 l 13,0 0,13 -13,0 z M 13,26 l 13,0 0,13 -13,0 z M 91,26 l 13,0 0,13 -13,0 z M 117,26 l 13,0 0,13 -13,0 z M 130,26 l 13,0 0,13 -13,0 z M 156,26 l 13,0 0,13 -13,0 z M 169,26 l 13,0 0,13 -13,0 z M 182,26 l 13,0 0,13 -13,0 z M 208,26 l 13,0 0,13 -13,0 z M 234,26 l 13,0 0,13 -13,0 z M 247,26 l 13,0 0,13 -13,0 z M 260,26 l 13,0 0,13 -13,0 z M 299,26 l 13,0 0,13 -13,0 z M 325,26 l 13,0 0,13 -13,0 z M 351,26 l 13,0 0,13 -13,0 z M 429,26 l 13,0 0,13 -13,0 z M 13,39 l 13,0 0,13 -13,0 z M 39,39 l 13,0 0,13 -13,0 z M 52,39 l 13,0 0,13 -13,0 z M 65,39 l 13,0 0,13 -13,0 z M 91,39 l 13,0 0,13 -13,0 z M 130,39 l 13,0 0,13 -13,0 z M 143,39 l 13,0 0,13 -13,0 z M 156,39 l 13,0 0,13 -13,0 z M 182,39 l 13,0 0,13 -13,0 z M 195,39 l 13,0 0,13 -13,0 z M 208,39 l 13,0 0,13 -13,0 z M 221,39 l 13,0 0,13 -13,0 z M 286,39 l 13,0 0,13 -13,0 z M 299,39 l 13,0 0,13 -13,0 z M 312,39 l 13,0 0,13 -13,0 z M 325,39 l 13,0 0,13 -13,0 z M 351,39 l 13,0 0,13 -13,0 z M 377,39 l 13,0 0,13 -13,0 z M 390,39 l 13,0 0,13 -13,0 z M 403,39 l 13,0 0,13 -13,0 z M 429,39 l 13,0 0,13 -13,0 z M 13,52 l 13,0 0,13 -13,0 z M 39,52 l 13,0 0,13 -13,0 z M 52,52 l 13,0 0,13 -13,0 z M 65,52 l 13,0 0,13 -13,0 z M 91,52 l 13,0 0,13 -13,0 z M 117,52 l 13,0 0,13 -13,0 z M 130,52 l 13,0 0,13 -13,0 z M 156,52 l 13,0 0,13 -13,0 z M 169,52 l 13,0 0,13 -13,0 z M 182,52 l 13,0 0,13 -13,0 z M 208,52 l 13,0 0,13 -13,0 z M 221,52 l 13,0 0,13 -13,0 z M 234,52 l 13,0 0,13 -13,0 z M 247,52 l 13,0 0,13 -13,0 z M 299,52 l 13,0 0,13 -13,0 z M 351,52 l 13,0 0,13 -13,0 z M 377,52 l 13,0 0,13 -13,0 z M 390,52 l 13,0 0,13 -13,0 z M 403,52 l 13,0 0,13 -13,0 z M 429,52 l 13,0 0,13 -13,0 z M 13,65 l 13,0 0,13 -13,0 z M 39,65 l 13,0 0,13 -13,0 z M 52,65 l 13,0 0,13 -13,0 z M 65,65 l 13,0 0,13 -13,0 z M 91,65 l 13,0 0,13 -13,0 z M 143,65 l 13,0 0,13 -13,0 z M 169,65 l 13,0 0,13 -13,0 z M 182,65 l 13,0 0,13 -13,0 z M 195,65 l 13,0 0,13 -13,0 z M 221,65 l 13,0 0,13 -13,0 z M 247,65 l 13,0 0,13 -13,0 z M 273,65 l 13,0 0,13 -13,0 z M 312,65 l 13,0 0,13 -13,0 z M 351,65 l 13,0 0,13 -13,0 z M 377,65 l 13,0 0,13 -13,0 z M 390,65 l 13,0 0,13 -13,0 z M 403,65 l 13,0 0,13 -13,0 z M 429,65 l 13,0 0,13 -13,0 z M 13,78 l 13,0 0,13 -13,0 z M 91,78 l 13,0 0,13 -13,0 z M 117,78 l 13,0 0,13 -13,0 z M 143,78 l 13,0 0,13 -13,0 z M 169,78 l 13,0 0,13 -13,0 z M 195,78 l 13,0 0,13 -13,0 z M 208,78 l 13,0 0,13 -13,0 z M 221,78 l 13,0 0,13 -13,0 z M 234,78 l 13,0 0,13 -13,0 z M 247,78 l 13,0 0,13 -13,0 z M 273,78 l 13,0 0,13 -13,0 z M 286,78 l 13,0 0,13 -13,0 z M 299,78 l 13,0 0,13 -13,0 z M 325,78 l 13,0 0,13 -13,0 z M 351,78 l 13,0 0,13 -13,0 z M 429,78 l 13,0 0,13 -13,0 z M 13,91 l 13,0 0,13 -13,0 z M 26,91 l 13,0 0,13 -13,0 z M 39,91 l 13,0 0,13 -13,0 z M 52,91 l 13,0 0,13 -13,0 z M 65,91 l 13,0 0,13 -13,0 z M 78,91 l 13,0 0,13 -13,0 z M 91,91 l 13,0 0,13 -13,0 z M 117,91 l 13,0 0,13 -13,0 z M 143,91 l 13,0 0,13 -13,0 z M 169,91 l 13,0 0,13 -13,0 z M 195,91 l 13,0 0,13 -13,0 z M 221,91 l 13,0 0,13 -13,0 z M 247,91 l 13,0 0,13 -13,0 z M 273,91 l 13,0 0,13 -13,0 z M 299,91 l 13,0 0,13 -13,0 z M 325,91 l 13,0 0,13 -13,0 z M 351,91 l 13,0 0,13 -13,0 z M 364,91 l 13,0 0,13 -13,0 z M 377,91 l 13,0 0,13 -13,0 z M 390,91 l 13,0 0,13 -13,0 z M 403,91 l 13,0 0,13 -13,0 z M 416,91 l 13,0 0,13 -13,0 z M 429,91 l 13,0 0,13 -13,0 z M 169,104 l 13,0 0,13 -13,0 z M 182,104 l 13,0 0,13 -13,0 z M 273,104 l 13,0 0,13 -13,0 z M 286,104 l 13,0 0,13 -13,0 z M 312,104 l 13,0 0,13 -13,0 z M 325,104 l 13,0 0,13 -13,0 z M 13,117 l 13,0 0,13 -13,0 z M 26,117 l 13,0 0,13 -13,0 z M 39,117 l 13,0 0,13 -13,0 z M 52,117 l 13,0 0,13 -13,0 z M 65,117 l 13,0 0,13 -13,0 z M 91,117 l 13,0 0,13 -13,0 z M 104,117 l 13,0 0,13 -13,0 z M 117,117 l 13,0 0,13 -13,0 z M 130,117 l 13,0 0,13 -13,0 z M 143,117 l 13,0 0,13 -13,0 z M 169,117 l 13,0 0,13 -13,0 z M 182,117 l 13,0 0,13 -13,0 z M 247,117 l 13,0 0,13 -13,0 z M 299,117 l 13,0 0,13 -13,0 z M 325,117 l 13,0 0,13 -13,0 z M 338,117 l 13,0 0,13 -13,0 z M 364,117 l 13,0 0,13 -13,0 z M 390,117 l 13,0 0,13 -13,0 z M 416,117 l 13,0 0,13 -13,0 z M 13,130 l 13,0 0,13 -13,0 z M 52,130 l 13,0 0,13 -13,0 z M 65,130 l 13,0 0,13 -13,0 z M 78,130 l 13,0 0,13 -13,0 z M 117,130 l 13,0 0,13 -13,0 z M 130,130 l 13,0 0,13 -13,0 z M 208,130 l 13,0 0,13 -13,0 z M 247,130 l 13,0 0,13 -13,0 z M 260,130 l 13,0 0,13 -13,0 z M 273,130 l 13,0 0,13 -13,0 z M 312,130 l 13,0 0,13 -13,0 z M 351,130 l 13,0 0,13 -13,0 z M 416,130 l 13,0 0,13 -13,0 z M 429,130 l 13,0 0,13 -13,0 z M 26,143 l 13,0 0,13 -13,0 z M 39,143 l 13,0 0,13 -13,0 z M 91,143 l 13,0 0,13 -13,0 z M 117,143 l 13,0 0,13 -13,0 z M 130,143 l 13,0 0,13 -13,0 z M 156,143 l 13,0 0,13 -13,0 z M 169,143 l 13,0 0,13 -13,0 z M 182,143 l 13,0 0,13 -13,0 z M 195,143 l 13,0 0,13 -13,0 z M 208,143 l 13,0 0,13 -13,0 z M 234,143 l 13,0 0,13 -13,0 z M 247,143 l 13,0 0,13 -13,0 z M 273,143 l 13,0 0,13 -13,0 z M 286,143 l 13,0 0,13 -13,0 z M 325,143 l 13,0 0,13 -13,0 z M 338,143 l 13,0 0,13 -13,0 z M 364,143 l 13,0 0,13 -13,0 z M 26,156 l 13,0 0,13 -13,0 z M 52,156 l 13,0 0,13 -13,0 z M 104,156 l 13,0 0,13 -13,0 z M 117,156 l 13,0 0,13 -13,0 z M 130,156 l 13,0 0,13 -13,0 z M 143,156 l 13,0 0,13 -13,0 z M 169,156 l 13,0 0,13 -13,0 z M 182,156 l 13,0 0,13 -13,0 z M 195,156 l 13,0 0,13 -13,0 z M 260,156 l 13,0 0,13 -13,0 z M 286,156 l 13,0 0,13 -13,0 z M 299,156 l 13,0 0,13 -13,0 z M 312,156 l 13,0 0,13 -13,0 z M 338,156 l 13,0 0,13 -13,0 z M 351,156 l 13,0 0,13 -13,0 z M 403,156 l 13,0 0,13 -13,0 z M 13,169 l 13,0 0,13 -13,0 z M 26,169 l 13,0 0,13 -13,0 z M 39,169 l 13,0 0,13 -13,0 z M 65,169 l 13,0 0,13 -13,0 z M 78,169 l 13,0 0,13 -13,0 z M 91,169 l 13,0 0,13 -13,0 z M 130,169 l 13,0 0,13 -13,0 z M 169,169 l 13,0 0,13 -13,0 z M 195,169 l 13,0 0,13 -13,0 z M 208,169 l 13,0 0,13 -13,0 z M 221,169 l 13,0 0,13 -13,0 z M 234,169 l 13,0 0,13 -13,0 z M 247,169 l 13,0 0,13 -13,0 z M 273,169 l 13,0 0,13 -13,0 z M 299,169 l 13,0 0,13 -13,0 z M 312,169 l 13,0 0,13 -13,0 z M 325,169 l 13,0 0,13 -13,0 z M 338,169 l 13,0 0,13 -13,0 z M 364,169 l 13,0 0,13 -13,0 z M 377,169 l 13,0 0,13 -13,0 z M 13,182 l 13,0 0,13 -13,0 z M 65,182 l 13,0 0,13 -13,0 z M 104,182 l 13,0 0,13 -13,0 z M 130,182 l 13,0 0,13 -13,0 z M 143,182 l 13,0 0,13 -13,0 z M 156,182 l 13,0 0,13 -13,0 z M 169,182 l 13,0 0,13 -13,0 z M 195,182 l 13,0 0,13 -13,0 z M 221,182 l 13,0 0,13 -13,0 z M 247,182 l 13,0 0,13 -13,0 z M 260,182 l 13,0 0,13 -13,0 z M 273,182 l 13,0 0,13 -13,0 z M 312,182 l 13,0 0,13 -13,0 z M 325,182 l 13,0 0,13 -13,0 z M 338,182 l 13,0 0,13 -13,0 z M 351,182 l 13,0 0,13 -13,0 z M 390,182 l 13,0 0,13 -13,0 z M 416,182 l 13,0 0,13 -13,0 z M 429,182 l 13,0 0,13 -13,0 z M 13,195 l 13,0 0,13 -13,0 z M 26,195 l 13,0 0,13 -13,0 z M 39,195 l 13,0 0,13 -13,0 z M 65,195 l 13,0 0,13 -13,0 z M 91,195 l 13,0 0,13 -13,0 z M 117,195 l 13,0 0,13 -13,0 z M 143,195 l 13,0 0,13 -13,0 z M 156,195 l 13,0 0,13 -13,0 z M 169,195 l 13,0 0,13 -13,0 z M 234,195 l 13,0 0,13 -13,0 z M 247,195 l 13,0 0,13 -13,0 z M 273,195 l 13,0 0,13 -13,0 z M 299,195 l 13,0 0,13 -13,0 z M 390,195 l 13,0 0,13 -13,0 z M 416,195 l 13,0 0,13 -13,0 z M 26,208 l 13,0 0,13 -13,0 z M 52,208 l 13,0 0,13 -13,0 z M 65,208 l 13,0 0,13 -13,0 z M 78,208 l 13,0 0,13 -13,0 z M 117,208 l 13,0 0,13 -13,0 z M 130,208 l 13,0 0,13 -13,0 z M 143,208 l 13,0 0,13 -13,0 z M 195,208 l 13,0 0,13 -13,0 z M 221,208 l 13,0 0,13 -13,0 z M 286,208 l 13,0 0,13 -13,0 z M 351,208 l 13,0 0,13 -13,0 z M 403,208 l 13,0 0,13 -13,0 z M 26,221 l 13,0 0,13 -13,0 z M 39,221 l 13,0 0,13 -13,0 z M 52,221 l 13,0 0,13 -13,0 z M 65,221 l 13,0 0,13 -13,0 z M 78,221 l 13,0 0,13 -13,0 z M 91,221 l 13,0 0,13 -13,0 z M 130,221 l 13,0 0,13 -13,0 z M 169,221 l 13,0 0,13 -13,0 z M 195,221 l 13,0 0,13 -13,0 z M 208,221 l 13,0 0,13 -13,0 z M 221,221 l 13,0 0,13 -13,0 z M 299,221 l 13,0 0,13 -13,0 z M 312,221 l 13,0 0,13 -13,0 z M 325,221 l 13,0 0,13 -13,0 z M 338,221 l 13,0 0,13 -13,0 z M 364,221 l 13,0 0,13 -13,0 z M 377,221 l 13,0 0,13 -13,0 z M 416,221 l 13,0 0,13 -13,0 z M 13,234 l 13,0 0,13 -13,0 z M 52,234 l 13,0 0,13 -13,0 z M 65,234 l 13,0 0,13 -13,0 z M 104,234 l 13,0 0,13 -13,0 z M 117,234 l 13,0 0,13 -13,0 z M 130,234 l 13,0 0,13 -13,0 z M 143,234 l 13,0 0,13 -13,0 z M 156,234 l 13,0 0,13 -13,0 z M 260,234 l 13,0 0,13 -13,0 z M 273,234 l 13,0 0,13 -13,0 z M 312,234 l 13,0 0,13 -13,0 z M 338,234 l 13,0 0,13 -13,0 z M 351,234 l 13,0 0,13 -13,0 z M 390,234 l 13,0 0,13 -13,0 z M 416,234 l 13,0 0,13 -13,0 z M 429,234 l 13,0 0,13 -13,0 z M 13,247 l 13,0 0,13 -13,0 z M 52,247 l 13,0 0,13 -13,0 z M 91,247 l 13,0 0,13 -13,0 z M 104,247 l 13,0 0,13 -13,0 z M 143,247 l 13,0 0,13 -13,0 z M 169,247 l 13,0 0,13 -13,0 z M 182,247 l 13,0 0,13 -13,0 z M 208,247 l 13,0 0,13 -13,0 z M 221,247 l 13,0 0,13 -13,0 z M 338,247 l 13,0 0,13 -13,0 z M 390,247 l 13,0 0,13 -13,0 z M 416,247 l 13,0 0,13 -13,0 z M 26,260 l 13,0 0,13 -13,0 z M 39,260 l 13,0 0,13 -13,0 z M 52,260 l 13,0 0,13 -13,0 z M 65,260 l 13,0 0,13 -13,0 z M 104,260 l 13,0 0,13 -13,0 z M 182,260 l 13,0 0,13 -13,0 z M 195,260 l 13,0 0,13 -13,0 z M 221,260 l 13,0 0,13 -13,0 z M 247,260 l 13,0 0,13 -13,0 z M 260,260 l 13,0 0,13 -13,0 z M 286,260 l 13,0 0,13 -13,0 z M 299,260 l 13,0 0,13 -13,0 z M 312,260 l 13,0 0,13 -13,0 z M 338,260 l 13,0 0,13 -13,0 z M 377,260 l 13,0 0,13 -13,0 z M 390,260 l 13,0 0,13 -13,0 z M 403,260 l 13,0 0,13 -13,0 z M 13,273 l 13,0 0,13 -13,0 z M 26,273 l 13,0 0,13 -13,0 z M 39,273 l 13,0 0,13 -13,0 z M 52,273 l 13,0 0,13 -13,0 z M 65,273 l 13,0 0,13 -13,0 z M 78,273 l 13,0 0,13 -13,0 z M 91,273 l 13,0 0,13 -13,0 z M 143,273 l 13,0 0,13 -13,0 z M 182,273 l 13,0 0,13 -13,0 z M 195,273 l 13,0 0,13 -13,0 z M 208,273 l 13,0 0,13 -13,0 z M 221,273 l 13,0 0,13 -13,0 z M 234,273 l 13,0 0,13 -13,0 z M 247,273 l 13,0 0,13 -13,0 z M 312,273 l 13,0 0,13 -13,0 z M 325,273 l 13,0 0,13 -13,0 z M 338,273 l 13,0 0,13 -13,0 z M 364,273 l 13,0 0,13 -13,0 z M 377,273 l 13,0 0,13 -13,0 z M 390,273 l 13,0 0,13 -13,0 z M 416,273 l 13,0 0,13 -13,0 z M 13,286 l 13,0 0,13 -13,0 z M 39,286 l 13,0 0,13 -13,0 z M 52,286 l 13,0 0,13 -13,0 z M 78,286 l 13,0 0,13 -13,0 z M 169,286 l 13,0 0,13 -13,0 z M 182,286 l 13,0 0,13 -13,0 z M 260,286 l 13,0 0,13 -13,0 z M 273,286 l 13,0 0,13 -13,0 z M 312,286 l 13,0 0,13 -13,0 z M 338,286 l 13,0 0,13 -13,0 z M 351,286 l 13,0 0,13 -13,0 z M 403,286 l 13,0 0,13 -13,0 z M 416,286 l 13,0 0,13 -13,0 z M 429,286 l 13,0 0,13 -13,0 z M 13,299 l 13,0 0,13 -13,0 z M 52,299 l 13,0 0,13 -13,0 z M 91,299 l 13,0 0,13 -13,0 z M 117,299 l 13,0 0,13 -13,0 z M 130,299 l 13,0 0,13 -13,0 z M 169,299 l 13,0 0,13 -13,0 z M 195,299 l 13,0 0,13 -13,0 z M 208,299 l 13,0 0,13 -13,0 z M 221,299 l 13,0 0,13 -13,0 z M 234,299 l 13,0 0,13 -13,0 z M 299,299 l 13,0 0,13 -13,0 z M 364,299 l 13,0 0,13 -13,0 z M 377,299 l 13,0 0,13 -13,0 z M 390,299 l 13,0 0,13 -13,0 z M 416,299 l 13,0 0,13 -13,0 z M 13,312 l 13,0 0,13 -13,0 z M 65,312 l 13,0 0,13 -13,0 z M 78,312 l 13,0 0,13 -13,0 z M 221,312 l 13,0 0,13 -13,0 z M 234,312 l 13,0 0,13 -13,0 z M 247,312 l 13,0 0,13 -13,0 z M 273,312 l 13,0 0,13 -13,0 z M 286,312 l 13,0 0,13 -13,0 z M 299,312 l 13,0 0,13 -13,0 z M 312,312 l 13,0 0,13 -13,0 z M 325,312 l 13,0 0,13 -13,0 z M 377,312 l 13,0 0,13 -13,0 z M 390,312 l 13,0 0,13 -13,0 z M 403,312 l 13,0 0,13 -13,0 z M 13,325 l 13,0 0,13 -13,0 z M 65,325 l 13,0 0,13 -13,0 z M 91,325 l 13,0 0,13 -13,0 z M 104,325 l 13,0 0,13 -13,0 z M 130,325 l 13,0 0,13 -13,0 z M 195,325 l 13,0 0,13 -13,0 z M 208,325 l 13,0 0,13 -13,0 z M 221,325 l 13,0 0,13 -13,0 z M 234,325 l 13,0 0,13 -13,0 z M 325,325 l 13,0 0,13 -13,0 z M 338,325 l 13,0 0,13 -13,0 z M 351,325 l 13,0 0,13 -13,0 z M 364,325 l 13,0 0,13 -13,0 z M 377,325 l 13,0 0,13 -13,0 z M 429,325 l 13,0 0,13 -13,0 z M 117,338 l 13,0 0,13 -13,0 z M 130,338 l 13,0 0,13 -13,0 z M 156,338 l 13,0 0,13 -13,0 z M 182,338 l 13,0 0,13 -13,0 z M 208,338 l 13,0 0,13 -13,0 z M 221,338 l 13,0 0,13 -13,0 z M 260,338 l 13,0 0,13 -13,0 z M 273,338 l 13,0 0,13 -13,0 z M 286,338 l 13,0 0,13 -13,0 z M 325,338 l 13,0 0,13 -13,0 z M 377,338 l 13,0 0,13 -13,0 z M 429,338 l 13,0 0,13 -13,0 z M 13,351 l 13,0 0,13 -13,0 z M 26,351 l 13,0 0,13 -13,0 z M 39,351 l 13,0 0,13 -13,0 z M 52,351 l 13,0 0,13 -13,0 z M 65,351 l 13,0 0,13 -13,0 z M 78,351 l 13,0 0,13 -13,0 z M 91,351 l 13,0 0,13 -13,0 z M 117,351 l 13,0 0,13 -13,0 z M 143,351 l 13,0 0,13 -13,0 z M 182,351 l 13,0 0,13 -13,0 z M 195,351 l 13,0 0,13 -13,0 z M 208,351 l 13,0 0,13 -13,0 z M 234,351 l 13,0 0,13 -13,0 z M 273,351 l 13,0 0,13 -13,0 z M 312,351 l 13,0 0,13 -13,0 z M 325,351 l 13,0 0,13 -13,0 z M 351,351 l 13,0 0,13 -13,0 z M 377,351 l 13,0 0,13 -13,0 z M 390,351 l 13,0 0,13 -13,0 z M 403,351 l 13,0 0,13 -13,0 z M 416,351 l 13,0 0,13 -13,0 z M 13,364 l 13,0 0,13 -13,0 z M 91,364 l 13,0 0,13 -13,0 z M 130,364 l 13,0 0,13 -13,0 z M 143,364 l 13,0 0,13 -13,0 z M 221,364 l 13,0 0,13 -13,0 z M 234,364 l 13,0 0,13 -13,0 z M 247,364 l 13,0 0,13 -13,0 z M 273,364 l 13,0 0,13 -13,0 z M 286,364 l 13,0 0,13 -13,0 z M 299,364 l 13,0 0,13 -13,0 z M 312,364 l 13,0 0,13 -13,0 z M 325,364 l 13,0 0,13 -13,0 z M 377,364 l 13,0 0,13 -13,0 z M 390,364 l 13,0 0,13 -13,0 z M 403,364 l 13,0 0,13 -13,0 z M 429,364 l 13,0 0,13 -13,0 z M 13,377 l 13,0 0,13 -13,0 z M 39,377 l 13,0 0,13 -13,0 z M 52,377 l 13,0 0,13 -13,0 z M 65,377 l 13,0 0,13 -13,0 z M 91,377 l 13,0 0,13 -13,0 z M 117,377 l 13,0 0,13 -13,0 z M 130,377 l 13,0 0,13 -13,0 z M 156,377 l 13,0 0,13 -13,0 z M 195,377 l 13,0 0,13 -13,0 z M 208,377 l 13,0 0,13 -13,0 z M 234,377 l 13,0 0,13 -13,0 z M 325,377 l 13,0 0,13 -13,0 z M 338,377 l 13,0 0,13 -13,0 z M 351,377 l 13,0 0,13 -13,0 z M 364,377 l 13,0 0,13 -13,0 z M 377,377 l 13,0 0,13 -13,0 z M 390,377 l 13,0 0,13 -13,0 z M 429,377 l 13,0 0,13 -13,0 z M 13,390 l 13,0 0,13 -13,0 z M 39,390 l 13,0 0,13 -13,0 z M 52,390 l 13,0 0,13 -13,0 z M 65,390 l 13,0 0,13 -13,0 z M 91,390 l 13,0 0,13 -13,0 z M 117,390 l 13,0 0,13 -13,0 z M 130,390 l 13,0 0,13 -13,0 z M 143,390 l 13,0 0,13 -13,0 z M 156,390 l 13,0 0,13 -13,0 z M 247,390 l 13,0 0,13 -13,0 z M 260,390 l 13,0 0,13 -13,0 z M 273,390 l 13,0 0,13 -13,0 z M 338,390 l 13,0 0,13 -13,0 z M 364,390 l 13,0 0,13 -13,0 z M 377,390 l 13,0 0,13 -13,0 z M 390,390 l 13,0 0,13 -13,0 z M 403,390 l 13,0 0,13 -13,0 z M 429,390 l 13,0 0,13 -13,0 z M 13,403 l 13,0 0,13 -13,0 z M 39,403 l 13,0 0,13 -13,0 z M 52,403 l 13,0 0,13 -13,0 z M 65,403 l 13,0 0,13 -13,0 z M 91,403 l 13,0 0,13 -13,0 z M 117,403 l 13,0 0,13 -13,0 z M 143,403 l 13,0 0,13 -13,0 z M 169,403 l 13,0 0,13 -13,0 z M 182,403 l 13,0 0,13 -13,0 z M 195,403 l 13,0 0,13 -13,0 z M 208,403 l 13,0 0,13 -13,0 z M 221,403 l 13,0 0,13 -13,0 z M 234,403 l 13,0 0,13 -13,0 z M 273,403 l 13,0 0,13 -13,0 z M 299,403 l 13,0 0,13 -13,0 z M 312,403 l 13,0 0,13 -13,0 z M 351,403 l 13,0 0,13 -13,0 z M 364,403 l 13,0 0,13 -13,0 z M 403,403 l 13,0 0,13 -13,0 z M 13,416 l 13,0 0,13 -13,0 z M 91,416 l 13,0 0,13 -13,0 z M 117,416 l 13,0 0,13 -13,0 z M 130,416 l 13,0 0,13 -13,0 z M 156,416 l 13,0 0,13 -13,0 z M 182,416 l 13,0 0,13 -13,0 z M 195,416 l 13,0 0,13 -13,0 z M 221,416 l 13,0 0,13 -13,0 z M 247,416 l 13,0 0,13 -13,0 z M 273,416 l 13,0 0,13 -13,0 z M 286,416 l 13,0 0,13 -13,0 z M 299,416 l 13,0 0,13 -13,0 z M 338,416 l 13,0 0,13 -13,0 z M 351,416 l 13,0 0,13 -13,0 z M 390,416 l 13,0 0,13 -13,0 z M 403,416 l 13,0 0,13 -13,0 z M 13,429 l 13,0 0,13 -13,0 z M 26,429 l 13,0 0,13 -13,0 z M 39,429 l 13,0 0,13 -13,0 z M 52,429 l 13,0 0,13 -13,0 z M 65,429 l 13,0 0,13 -13,0 z M 78,429 l 13,0 0,13 -13,0 z M 91,429 l 13,0 0,13 -13,0 z M 117,429 l 13,0 0,13 -13,0 z M 143,429 l 13,0 0,13 -13,0 z M 169,429 l 13,0 0,13 -13,0 z M 182,429 l 13,0 0,13 -13,0 z M 195,429 l 13,0 0,13 -13,0 z M 208,429 l 13,0 0,13 -13,0 z M 221,429 l 13,0 0,13 -13,0 z M 234,429 l 13,0 0,13 -13,0 z M 260,429 l 13,0 0,13 -13,0 z M 299,429 l 13,0 0,13 -13,0 z M 325,429 l 13,0 0,13 -13,0 z M 338,429 l 13,0 0,13 -13,0 z M 351,429 l 13,0 0,13 -13,0 z M 416,429 l 13,0 0,13 -13,0 z " />
	</g>
</svg>
